<svg width="96" height="96" viewBox="0 0 96 96" xmlns="http://www.w3.org/2000/svg">
  <defs>
    <linearGradient id="hair" x1="0" y1="0" x2="1" y2="1">
      <stop offset="0%" stop-color="#ff9a3d"/>
      <stop offset="100%" stop-color="#ff4d6d"/>
    </linearGradient>
    <linearGradient id="top" x1="0" y1="0" x2="1" y2="1">
      <stop offset="0%" stop-color="#7cc5ff"/>
      <stop offset="100%" stop-color="#3a6cff"/>
    </linearGradient>
    <linearGradient id="skirt" x1="0" y1="0" x2="1" y2="1">
      <stop offset="0%" stop-color="#ffd2e0"/>
      <stop offset="100%" stop-color="#ff8fab"/>
    </linearGradient>
    <linearGradient id="shine" x1="0" y1="0" x2="1" y2="1">
      <stop offset="0%" stop-color="#ffffff" stop-opacity="0.7"/>
      <stop offset="100%" stop-color="#ffffff" stop-opacity="0"/>
    </linearGradient>
  </defs>
  <circle cx="48" cy="38" r="18" fill="#ffd7b0"/>
  <path d="M22 44 C18 18, 78 12, 78 42 C74 30, 64 24, 50 26 C38 26, 30 32, 22 44" fill="url(#hair)"/>
  <path d="M30 38 C30 20, 70 20, 70 38" fill="url(#hair)"/>
  <circle cx="41" cy="38" r="3" fill="#1c1c1c"/>
  <circle cx="55" cy="38" r="3" fill="#1c1c1c"/>
  <circle cx="40" cy="37" r="1" fill="#ffffff"/>
  <circle cx="54" cy="37" r="1" fill="#ffffff"/>
  <path d="M42 45 C46 48, 50 48, 54 45" stroke="#b0554b" stroke-width="2.5" fill="none" stroke-linecap="round"/>
  <circle cx="34" cy="44" r="4" fill="#ffb3c1" opacity="0.8"/>
  <circle cx="62" cy="44" r="4" fill="#ffb3c1" opacity="0.8"/>
  <rect x="35" y="52" width="26" height="11" rx="5.5" fill="url(#top)"/>
  <path d="M28 63 C34 56, 62 56, 68 63" fill="url(#skirt)"/>
  <rect x="40" y="62" width="6" height="16" rx="3" fill="#ffd7b0"/>
  <rect x="50" y="62" width="6" height="16" rx="3" fill="#ffd7b0"/>
  <rect x="37" y="78" width="12" height="4" rx="2" fill="#1c1c1c"/>
  <rect x="49" y="78" width="12" height="4" rx="2" fill="#1c1c1c"/>
  <ellipse cx="60" cy="24" rx="10" ry="6" fill="url(#shine)"/>
</svg>
