<svg width="96" height="96" viewBox="0 0 96 96" xmlns="http://www.w3.org/2000/svg">
  <defs>
    <linearGradient id="suit" x1="0" y1="0" x2="1" y2="1">
      <stop offset="0%" stop-color="#1f2a44"/>
      <stop offset="100%" stop-color="#0b152a"/>
    </linearGradient>
    <linearGradient id="tank" x1="0" y1="0" x2="0" y2="1">
      <stop offset="0%" stop-color="#7cc5ff"/>
      <stop offset="100%" stop-color="#3a6cff"/>
    </linearGradient>
  </defs>
  <circle cx="48" cy="48" r="30" fill="#ffd7b0"/>
  <rect x="28" y="54" width="40" height="24" rx="10" fill="url(#suit)"/>
  <rect x="32" y="28" width="32" height="20" rx="8" fill="url(#suit)"/>
  <rect x="34" y="30" width="28" height="16" rx="8" fill="#9bd6ff"/>
  <circle cx="36" cy="42" r="5" fill="#1c1c1c"/>
  <circle cx="60" cy="42" r="5" fill="#1c1c1c"/>
  <path d="M35 58 C40 66, 56 66, 61 58" stroke="#1c1c1c" stroke-width="4" fill="none" stroke-linecap="round"/>
  <rect x="68" y="30" width="12" height="30" rx="6" fill="url(#tank)"/>
  <path d="M64 36 C60 34, 58 36, 56 40" stroke="#7cc5ff" stroke-width="4" fill="none" stroke-linecap="round"/>
  <circle cx="22" cy="26" r="16" fill="#3b2e2a"/>
  <circle cx="74" cy="26" r="16" fill="#3b2e2a"/>
  <path d="M28 18 C34 8, 62 8, 68 18" fill="#3b2e2a"/>
</svg>
