<svg width="96" height="96" viewBox="0 0 96 96" xmlns="http://www.w3.org/2000/svg">
  <defs>
    <linearGradient id="skin" x1="0" y1="0" x2="1" y2="1">
      <stop offset="0%" stop-color="#7b2cbf"/>
      <stop offset="100%" stop-color="#3c096c"/>
    </linearGradient>
    <linearGradient id="hair" x1="0" y1="0" x2="1" y2="1">
      <stop offset="0%" stop-color="#0b1320"/>
      <stop offset="100%" stop-color="#1b1b2f"/>
    </linearGradient>
  </defs>
  <circle cx="48" cy="44" r="22" fill="url(#skin)"/>
  <path d="M18 44 C14 20, 82 16, 78 44 C72 30, 60 24, 48 26 C36 26, 24 30, 18 44" fill="url(#hair)"/>
  <circle cx="40" cy="44" r="4" fill="#f8f8f8"/>
  <circle cx="56" cy="44" r="4" fill="#f8f8f8"/>
  <circle cx="40" cy="44" r="2" fill="#1c1c1c"/>
  <circle cx="56" cy="44" r="2" fill="#1c1c1c"/>
  <path d="M36 54 C42 60, 54 60, 60 54" stroke="#f7cad0" stroke-width="3" fill="none" stroke-linecap="round"/>
  <path d="M20 66 C30 54, 66 54, 76 66" fill="#2f1b47"/>
  <path d="M18 74 C28 66, 68 66, 78 74" fill="#3c096c"/>
</svg>
